<?xml version="1.0" standalone="no"?><svg xmlns="http://www.w3.org/2000/svg" viewBox="0 0 1440 320"><path fill="#dcdcdc" fill-opacity="1" d="M0,64L17.1,69.3C34.3,75,69,85,103,122.7C137.1,160,171,224,206,245.3C240,267,274,245,309,213.3C342.9,181,377,139,411,106.7C445.7,75,480,53,514,69.3C548.6,85,583,139,617,144C651.4,149,686,107,720,74.7C754.3,43,789,21,823,21.3C857.1,21,891,43,926,69.3C960,96,994,128,1029,165.3C1062.9,203,1097,245,1131,224C1165.7,203,1200,117,1234,106.7C1268.6,96,1303,160,1337,160C1371.4,160,1406,96,1423,64L1440,32L1440,320L1422.9,320C1405.7,320,1371,320,1337,320C1302.9,320,1269,320,1234,320C1200,320,1166,320,1131,320C1097.1,320,1063,320,1029,320C994.3,320,960,320,926,320C891.4,320,857,320,823,320C788.6,320,754,320,720,320C685.7,320,651,320,617,320C582.9,320,549,320,514,320C480,320,446,320,411,320C377.1,320,343,320,309,320C274.3,320,240,320,206,320C171.4,320,137,320,103,320C68.6,320,34,320,17,320L0,320Z"></path></svg>